PathFileType	4	(X/Y/Z)	RBDS017\RBDS017runT35.trc
DataRate	CameraRate	NumFrames	NumMarkers	Units	OrigDataRate	OrigDataStartFrame	OrigNumFrames
150.000000	150.000000	4	33	mm	150.000000	3937	4500
Frame#	Time	L.ASIS			L.Heel.Bottom			L.Heel.Lateral			L.Heel.Top			L.Iliac.Crest			L.MT1			L.MT5			L.PSIS			L.Shank.Bottom.Lateral			L.Shank.Bottom.Medial			L.Shank.Top.Lateral			L.Shank.Top.Medial			L.Thigh.Bottom.Lateral			L.Thigh.Bottom.Medial			L.Thigh.Top.Lateral			L.Thigh.Top.Medial			R.ASIS			R.ASY			R.Heel.Bottom			R.Heel.Lateral			R.Heel.Top			R.Iliac.Crest			R.MT1			R.MT5			R.PSIS			R.Shank.Bottom.Lateral			R.Shank.Bottom.Medial			R.Shank.Top.Lateral			R.Shank.Top.Medial			R.Thigh.Bottom.Lateral			R.Thigh.Bottom.Medial			R.Thigh.Top.Lateral			R.Thigh.Top.Medial			
		X1	Y1	Z1	X2	Y2	Z2	X3	Y3	Z3	X4	Y4	Z4	X5	Y5	Z5	X6	Y6	Z6	X7	Y7	Z7	X8	Y8	Z8	X9	Y9	Z9	X10	Y10	Z10	X11	Y11	Z11	X12	Y12	Z12	X13	Y13	Z13	X14	Y14	Z14	X15	Y15	Z15	X16	Y16	Z16	X17	Y17	Z17	X18	Y18	Z18	X19	Y19	Z19	X20	Y20	Z20	X21	Y21	Z21	X22	Y22	Z22	X23	Y23	Z23	X24	Y24	Z24	X25	Y25	Z25	X26	Y26	Z26	X27	Y27	Z27	X28	Y28	Z28	X29	Y29	Z29	X30	Y30	Z30	X31	Y31	Z31	X32	Y32	Z32	X33	Y33	Z33	

3938	26.24666666666667	2229.85566314928	1075.914338859003	890.4556980538159	1518.870277305548	330.6684720422188	966.5084619207975	1534.016251855592	324.5839976151336	923.3457961777995	1562.129512182399	344.2766006483278	957.7874105419295	2202.896531675164	1186.755878400002	855.5239782008098	1638.121488617987	135.7089330966147	946.3838460611897	1580.75210580655	172.5934834859393	855.3751093868688	2068.253491012026	1171.915582981802	966.9526810473596	1663.131134206389	371.4993669123004	884.0129689486137	1639.237766147352	394.5326442609809	928.5898354951939	1710.030467592513	436.2057157713261	876.0446548720598	1686.452588166806	459.8280457180832	918.1212925216684	1996.173507866558	728.8427952683791	848.7415561862776	1937.996402676324	748.0007909250755	887.5219827931925	2021.776074865277	835.6880964642701	841.9241006078199	1969.411631280503	853.5865295945007	882.3478147339096	2216.388139568239	1097.224424928988	1159.7194893605	2423.993614661009	127.7857415730737	1140.172999332253	2235.700932322383	123.8603048523717	1061.073484624047	2248.112105614447	128.2352444545018	1110.535437850294	2249.665385461394	165.0565432663468	1079.244663071525	2164.71155750864	1197.004627599328	1202.04968170937	2454.965829606372	107.162507061268	1094.754888322463	2387.592282932941	69.83012590350648	1180.226898513444	2058.344462962059	1169.905110893502	1069.719769365265	2288.526940677776	264.0230712780326	1154.453599530047	2261.503250753454	268.9123005910901	1110.817160043498	2280.687023914912	347.6528217476738	1166.664107764208	2250.932497739922	348.3287218862858	1122.520852197878	2268.255581433505	727.5447100307634	1194.218197637333	2216.696074961176	696.6733880795592	1152.725294051914	2204.949178355553	816.6816507769296	1201.447429400106	2155.919519955515	787.80818299931	1162.086076381853	
3939	26.25333333333333	2230.368434743405	1077.416175960674	890.8351572513095	1509.507402960234	347.366301407871	966.5273883133593	1524.432896892089	341.2621373183353	923.3907196302112	1553.13551116747	359.6051605425572	958.0924169681227	2201.727634896592	1188.100994666114	856.4791389535812	1622.496094537782	148.9824862647726	944.6616116720593	1566.537072341557	188.7556675106386	853.8667609025092	2068.179223681209	1172.131212916943	968.2644798328981	1655.781146051909	383.0986514868188	883.827722834482	1633.02049371719	407.2966583427115	928.439617528732	1705.494153381771	445.6252189251561	875.6769891212509	1683.157155759056	470.3856340445193	917.8099141570575	1999.852454482702	728.3915151588519	848.3206458442648	1941.285629350869	747.1814102732205	886.7274112916397	2024.731977047244	835.3610480299554	841.5195834755707	1972.018371655332	853.0016874293919	881.5637346166129	2215.755825576015	1096.173920111293	1160.567898399944	2443.241411062701	131.1970343365458	1141.628111550621	2255.999032266343	112.5323098798007	1062.418636762508	2268.003430342979	118.0171683286898	1111.873034269926	2266.637828413489	154.7752721482334	1080.472101303899	2164.112008424505	1196.331970257774	1202.52440768367	2476.062251371	113.1923419251571	1096.239683144464	2411.54309537676	70.73687007289332	1181.84715326247	2058.263843301009	1169.597449314012	1070.997776186712	2300.161305846606	258.3465355270169	1155.152739855087	2272.830260254225	261.8709815790104	1111.597957193537	2288.137298205477	341.4376950168223	1167.202011493957	2258.276364980352	340.6135800786645	1123.180334310833	2262.996308331932	723.3093725244757	1194.118416406261	2211.919329997021	693.7555895692618	1151.099468121322	2200.801951691108	813.3001543641922	1201.147443680852	2152.277315694148	785.6831767058238	1160.453151684799	
3940	26.26	2230.815490440526	1078.440159816897	891.1931853227996	1501.175462221861	364.4940708850096	966.3599199435693	1515.949098639524	358.1750389028343	923.2966193794459	1545.145508796372	375.2843132384469	958.2277088875395	2200.326728722204	1188.924519239909	857.3976780549993	1607.656750615225	162.8377967267797	943.6680042914556	1553.34181469092	205.0624868334896	852.8619702251831	2067.941439593651	1171.76316238083	969.5677593022966	1649.459113580334	394.7006327479813	883.6263758213863	1627.829626430119	420.1484848537422	928.1483021996697	1701.993875254571	454.8582360403827	875.2508580095761	1680.872668849337	480.8439484829231	917.3097216290537	2004.174603199952	727.1317581897911	847.8825787711917	1945.147195883669	745.4898441694223	885.8352792338102	2028.175628665265	834.2509790332084	841.0393447626543	1975.069188203577	851.5970887546297	880.6450346692421	2215.060797097689	1094.680830814628	1161.498571990986	2460.051355352914	134.8959400166238	1142.815233146565	2274.461618892559	102.3444802805733	1063.881251223359	2286.13118667242	108.9120355014759	1113.310300868133	2281.965224409482	145.4095778989478	1081.765118833612	2163.330849281577	1194.841554691095	1203.101401477086	2494.395031127608	119.4294370686538	1097.401564527818	2433.003216951493	72.36668598885929	1183.327634814253	2057.978670233384	1168.683193534286	1072.226274256053	2310.412727551694	253.2381583730787	1155.758546120942	2282.830200741407	255.4576207061713	1112.285698638571	2294.538439186927	335.6981652043465	1167.601195723294	2264.633290037807	333.424833996402	1123.683699368065	2257.866073012599	718.939441976668	1194.017879201159	2207.300491082387	690.6977267658543	1149.497690426887	2196.764456682756	809.742468713756	1200.930941239063	2148.766461321725	783.3645653332464	1158.923595995977	
3941	26.26666666666667	2231.218995762082	1078.948108523087	891.5556300349182	1494.140478310601	382.0353834014229	965.995117168137	1508.79485655238	375.2828048128616	923.0415441331264	1538.431403139573	391.2762243757772	958.1571968512392	2198.78263918271	1189.231464572169	858.2865009031244	1593.779594529608	177.1598847216313	943.373802867719	1541.274093892677	221.4007811216061	852.3641456940539	2067.588547054653	1170.800718563232	970.7907170281428	1644.316767501309	406.2103213178445	883.370365962926	1623.817342629468	432.9703344278636	927.6777232053799	1699.631828343749	463.8290000761687	874.740251469953	1679.697659642844	491.1055599263766	916.5965020541281	2009.011276839374	725.101982001074	847.4107106394292	1949.489500902214	742.9584502185404	884.8787641602302	2032.00500085161	832.3903186446405	840.5063411122976	1978.489608143394	849.3941642480507	879.6551159000667	2214.325937439869	1092.818698105164	1162.50952018623	2474.289918233705	138.4423062438555	1143.707123543506	2290.746956999103	93.25138655202703	1065.36518794397	2302.149797115438	100.8402925757778	1114.762289299877	2295.399976475372	136.9279681707726	1083.056031456906	2162.389068376984	1192.63128959621	1203.774672642344	2509.814427683162	125.3321313574218	1098.216813430805	2451.63905303243	74.27001873819601	1184.606626207824	2057.512719256858	1167.174118330318	1073.328473386974	2319.147606512344	248.5837317223581	1156.253661808413	2291.376919747733	249.5798471500461	1112.845373980022	2299.811102245837	330.3801623201659	1167.851383811342	2269.931471558832	326.7326511863528	1123.999498204163	2252.994780770019	714.5316139549501	1193.871057727354	2202.918873596732	687.5532498282475	1147.96504657291	2192.965008887858	806.1049900525021	1200.75191352867	2145.467023482916	780.909980283806	1157.529472680854	
